<?xml version="1.0" encoding="UTF-8"?>
<svg width="28px" height="32px" viewBox="0 0 28 32" version="1.1" xmlns="http://www.w3.org/2000/svg" xmlns:xlink="http://www.w3.org/1999/xlink">
    <!-- Generator: Sketch 61.2 (89653) - https://sketch.com -->
    <title>icon_19</title>
    <desc>Created with Sketch.</desc>
    <g id="Page-1" stroke="none" stroke-width="1" fill="none" fill-rule="evenodd">
        <g id="icon_19" transform="translate(-4.000000, -1.000000)">
            <polygon id="Path" points="0 0 36 0 36 36 0 36"></polygon>
            <path d="M18.0495581,12 C19.9743977,12 21.8867382,12.7374385 23.3491163,14.1998166 C26.2863714,17.1245727 26.2863714,21.8741767 23.3616153,24.7989329 C20.4243602,27.723689 15.6747561,27.723689 12.75,24.7989329 L12.75,24.7989329 L18.0495581,19.4993747 Z M22.5,1.5 L22.5,4.5 L13.5,4.5 L13.5,1.5 L22.5,1.5 Z M28.545,11.085 L30.675,8.955 C30.03,8.19 29.325,7.47 28.56,6.84 L26.43,8.97 C24.105,7.11 21.18,6 18,6 C10.545,6 4.5,12.045 4.5,19.5 C4.5,26.955 10.53,33 18,33 C25.47,33 31.5,26.955 31.5,19.5 C31.5,16.32 30.39,13.395 28.545,11.085 Z M18,30 C12.195,30 7.5,25.305 7.5,19.5 C7.5,13.695 12.195,9 18,9 C23.805,9 28.5,13.695 28.5,19.5 C28.5,25.305 23.805,30 18,30 Z" id="Shape" fill="#000000" fill-rule="nonzero"></path>
        </g>
    </g>
</svg>