<?xml version="1.0" encoding="UTF-8"?>
<svg width="36px" height="30px" viewBox="0 0 36 30" version="1.1" xmlns="http://www.w3.org/2000/svg" xmlns:xlink="http://www.w3.org/1999/xlink">
    <!-- Generator: Sketch 61.2 (89653) - https://sketch.com -->
    <title>icon_18</title>
    <desc>Created with Sketch.</desc>
    <g id="Page-1" stroke="none" stroke-width="1" fill="none" fill-rule="evenodd">
        <g id="icon_18" transform="translate(0.000000, -3.000000)">
            <polygon id="Path" points="0 0 36 0 36 36 0 36"></polygon>
            <path d="M34.5,16.515 L27,16.5 C26.175,16.5 25.5,17.175 25.5,18 L25.5,31.5 C25.5,32.325 26.175,33 27,33 L34.5,33 C35.325,33 36,32.325 36,31.5 L36,18 C36,17.175 35.325,16.515 34.5,16.515 Z M30,3 L3,3 C1.335,3 0,4.335 0,6 L0,24 C0,25.65 1.335,27 3,27 L13.5,27 L13.5,30 L10.5,30 L10.5,33 L22.5,33 L22.5,30 L19.5,30 L19.5,27 L22.5,27 L22.5,24 L3,24 L3,6 L30,6 L30,13.5 L33,13.5 L33,6 C33,4.335 31.65,3 30,3 Z" id="Shape" fill="#000000" fill-rule="nonzero"></path>
        </g>
    </g>
</svg>