<?xml version="1.0" encoding="UTF-8"?>
<svg width="28px" height="31px" viewBox="0 0 28 31" version="1.1" xmlns="http://www.w3.org/2000/svg" xmlns:xlink="http://www.w3.org/1999/xlink">
    <!-- Generator: Sketch 61.2 (89653) - https://sketch.com -->
    <title>icon_17</title>
    <desc>Created with Sketch.</desc>
    <g id="Page-1" stroke="none" stroke-width="1" fill="none" fill-rule="evenodd">
        <g id="icon_17" transform="translate(-4.000000, -1.000000)">
            <polygon id="Path" points="0 0 36 0 36 36 0 36"></polygon>
            <path d="M28.5,4.5 L27,4.5 L27,1.5 L24,1.5 L24,4.5 L12,4.5 L12,1.5 L9,1.5 L9,4.5 L7.5,4.5 C5.835,4.5 4.515,5.85 4.515,7.5 L4.5,28.5 C4.5,30.15 5.835,31.5 7.5,31.5 L28.5,31.5 C30.15,31.5 31.5,30.15 31.5,28.5 L31.5,7.5 C31.5,5.85 30.15,4.5 28.5,4.5 Z M28.5,28.5 L7.5,28.5 L7.5,12 L28.5,12 L28.5,28.5 Z M10.5,15 L18,15 L18,22.5 L10.5,22.5 L10.5,15 Z" id="Shape" fill="#000000" fill-rule="nonzero"></path>
        </g>
    </g>
</svg>