<svg xmlns="http://www.w3.org/2000/svg" viewBox="0 0 620 150"><defs><style>.cls-1{fill:#e5ac5c;}</style></defs><title>Asset 2</title><g id="Layer_2" data-name="Layer 2"><g id="Layer_1-2" data-name="Layer 1"><path d="M620,32.05v16a2,2,0,0,1-1.87,2A30,30,0,0,0,590,80v38a2,2,0,0,1-2,2H572a2,2,0,0,1-2-2V32a2,2,0,0,1,2-2h14a4,4,0,0,1,4,4v6a49.75,49.75,0,0,1,27.89-10A2,2,0,0,1,620,32.05ZM261.75,0h-14a4,4,0,0,0-4,4V118a2,2,0,0,0,2,2h16a2,2,0,0,0,2-2V2A2,2,0,0,0,261.75,0ZM367.5,32v86a2,2,0,0,1-2,2h-14a4,4,0,0,1-4-4v-3.6a45,45,0,1,1,0-74.8V34a4,4,0,0,1,4-4h14A2,2,0,0,1,367.5,32Zm-20,43a25,25,0,1,0-25,25A25,25,0,0,0,347.5,75ZM230,75a45,45,0,0,1-70,37.4V148a2,2,0,0,1-2,2H142a2,2,0,0,1-2-2V32a2,2,0,0,1,2-2h14a4,4,0,0,1,4,4v3.6A45,45,0,0,1,230,75Zm-20,0a25,25,0,1,0-25,25A25,25,0,0,0,210,75Zm347.5,0a45.36,45.36,0,0,1-.37,5.74,2,2,0,0,1-2,1.76H488.65a25,25,0,0,0,40.64,11,4,4,0,0,1,2.64-1h18.89a2,2,0,0,1,1.79,2.88A45,45,0,1,1,557.5,75Zm-21.15-7.5a25,25,0,0,0-47.7,0ZM464.83,30H448.35a4,4,0,0,0-3.68,2.43l-22.12,52-21.81-52A4,4,0,0,0,397.05,30H380.83A2,2,0,0,0,379,32.77l30.62,73.66a11.8,11.8,0,0,1,0,9.13l-.78,1.84a20.57,20.57,0,0,1-19,12.6,2,2,0,0,0-2,2v16a2,2,0,0,0,2,2,41.61,41.61,0,0,0,38.37-25.51l38.47-91.72A2,2,0,0,0,464.83,30ZM614.38,17.46h-1.15V12.41h2.16a1.68,1.68,0,0,1,1.24.5,1.66,1.66,0,0,1,.49,1.24,1.49,1.49,0,0,1-.93,1.49l1.07,1.82h-1.18l-1-1.67h-.74Zm0-2.69h.91a.72.72,0,0,0,.53-.18.58.58,0,0,0,.19-.46.62.62,0,0,0-.19-.48.72.72,0,0,0-.53-.19h-.91Zm-2.91,3.76A4.83,4.83,0,0,1,610,15a5,5,0,1,1,10,0,5,5,0,0,1-8.53,3.54ZM611.12,15a3.72,3.72,0,0,0,1.14,2.75A3.79,3.79,0,0,0,615,18.87,3.82,3.82,0,0,0,618.88,15a3.72,3.72,0,0,0-1.12-2.74,3.95,3.95,0,0,0-5.51,0A3.73,3.73,0,0,0,611.12,15Z"/><path class="cls-1" d="M120,100l10,20H100L90,100Zm20-30L0,140l10-20,10-20L70,0l38.89,77.78ZM54.29,91.43l27.93-7L70,60Z"/></g></g></svg>